<svg version="1.2" xmlns="http://www.w3.org/2000/svg" viewBox="0 0 1000 1000" width="1000" height="1000">
	<title>5645034</title>
	<style>
		.s0 { fill: none;stroke: #000000;stroke-miterlimit:10;stroke-width: 2 } 
	</style>
	<g id="BACKGROUND">
	</g>
	<g id="OBJECTS">
		<path id="&lt;Path&gt;" class="s0" d="m146.9 806.7c58.7 3.5 100.7 72.2 114.3 64.9 8.1-4.4-7.1-18.5-12.7-23-4-3.3-8.3-6.2-12.9-8.1-4.1-1.7-10.1-3.8-14.2-0.6-2.1 1.7-3.8 5.2-2.9 7.5 2.3 5.7 9.2 5.6 14.1 4.6 13.9-2.8 26.4-12.3 37.7-22.4 38.2-34.4 68.7-79.6 87.5-129.6 3.7-10 7-20.7 5.7-31-2.2-17.7-16.7-28.7-28.7-39.9-21.3-19.9-37.5-45.8-59.9-64.3-9.9-8.1-22.9-14.8-34.8-9.2-10.5 4.8-16.4 17.4-20.1 29.2-6.9 21.9-9.6 44.8-11 67.6-2.4 40.5-0.5 81.4 9.6 119.5 6.1 22.9 15.6 45.3 32.2 59.8 16.3 14.3 37.8 19.5 58.8 22.6 33.4 5.1 68.2 5.8 101.6-4.7 12-3.7 24.3-9.4 32.2-20.4 9.5-13.1 10.7-31 8.8-47-3.8-32.7-19.2-62.7-42.1-82.5-14.9-12.7-35.4-21.2-53.5-12.1-9.3 4.8-16.6 13.6-23.1 22.6-32.2 44.2-53.2 98-59.7 153-0.2 2-0.4 4.1 0.4 5.9 1 2 3.1 2.9 5 3.7 28 10.9 58.6 14.4 88.8 10.4 16.1-2.2 34.2-8.2 42.3-24.3 5.7-11.4 4.8-25 2.7-37.4-5.1-30.9-16.5-60-33.2-84.6-13.6-19.9-33.3-37.9-56.5-35.2-15 1.8-28.7 12.3-39.4 24.9-14.6 17.2-24.7 38.9-28.8 61.7-1.1 6.1-0.7 14.3 4.7 15.7 2.2 0.6 4.6-0.3 6.6-1.8 5.6-4.3 7.8-12.2 9.5-19.4 5.8-26.3 9.8-52.9 11.8-79.6 0.9-12.1 1.3-24.5-2.6-35.4-5.3-15.2-18-24.9-29.6-34.6-25-20.7-47.6-44.6-67.5-71.3-8.4-11.3-16.8-23.5-29.2-28.9-3.3-1.4-7-2.3-10.5-1-7.8 2.9-9.9 14.1-10.1 23.1-1.4 57.3 11.7 113.4 33.9 163.4 22.3 50.1 53.3 94.3 88.3 133.9 2.9 3.3 6 6.7 7.1 11.3 1.6 6.2-1.9 13.6-8.4 12.9-8-0.9-14.8-5.9-21.1-10.8-6.2-4.8-11.9-10.3-17.7-15.7-2.5-2.4-5-4.9-7.8-6.8-4.4-3-9-5.5-13.7-7.5-12.1-5-25.2-7-38.3-6.6-20 0.7-39.9 7-58.8 15.9"/>
	</g>
</svg>