<svg xmlns="http://www.w3.org/2000/svg" version="1.2" viewBox="0 0 1000 1000" width="1000" height="1000">
	<title>5645034</title>
	<style>
		.s0 { fill: none;stroke: #ffffff;stroke-linecap: round;stroke-linejoin: round;stroke-width: 2 } 
	</style>
	<g id="BACKGROUND">
	</g>
	<g id="OBJECTS">
		<path id="&lt;Path&gt;" class="s0" d="m608 187.2c-7.6 14.4-3.6 32.5 4.9 46.3 8.5 13.8 21 24.6 32 36.6 11 11.9 20.9 26 22.4 42.2 0.6 6.6-1.5 14.8-7.9 16.5-3.3 0.9-6.8-0.3-9.8-1.9-11.6-5.9-19.7-16.9-27-27.6-35-51.9-64.4-110.1-115-147-8.5-6.2-17.8-11.8-28.1-13.8-4.2-0.8-8.7-0.9-12.4 1.1-5.2 2.9-7.4 9.4-6.9 15.3 0.5 5.9 3.3 11.4 6 16.6q21.1 41.2 42.1 82.5c8.1 15.7 16.1 31.4 25.7 46.3 3.9 6 8.2 12 14.1 16.1 9 6.4 20.4 7.6 31.3 8.9 19.4 2.4 38.6 5.7 57.7 10 2.8 0.7 6.2 1.8 6.8 4.7 1.1 4.8-6.1 6.6-11 6-16.9-2-33.7-4.9-50.3-8.6-10.2-2.3-23.2-3.9-28.8 4.9-3 4.6-2.6 10.5-1.9 15.9 6.1 43.5 30.3 80.4 66.2 105.6 4.5 3.2 9.4 6.5 14.8 8 3.9 1.1 8.1 1.3 11.8-0.2 3.4-1.4 6.1-4.2 8.2-7.2 12.3-18.9 18-41 18.6-63.2 0.6-23.4-4.4-46.9-14.9-67.8-2.7-5.5-5.8-11.6-3.7-17.3 2.8-7.7 14.1-9 20.8-4.3 6.7 4.7 9.7 13 11.5 21 4.8 20.1 5 41.2 0.6 61.4-1.5 7-3.5 14-3.2 21.2 0.6 16.4 17.2 13.3 14.5-0.4-2.5-13.1-13.1-24-17.9-36.5-2.6-6.8-5.3-14-4.4-21.3 1.8-14.9 17.1-23.9 31-29.4 36.5-14.7 75.9-22.3 115.2-22.2 11.3 0 23.3 0.9 32.5 7.4 10 7 14.9 19.6 15.1 31.8 0.3 12.3-3.6 24.2-8.3 35.5-10.6 25.9-26.1 50.8-48.9 67.2-10.1 7.4-22.6 13.1-34.9 10.8-7.4-1.3-14-5.4-20.2-9.6-18.3-12.4-35.3-26.5-50.8-42.1-11-11.1-21.7-23.7-24.7-39.1-1.3-6.5-0.9-13.9 3.3-19.1 4.9-6.1 13.4-7.5 21.1-8.7 46.2-7 91.4-19.9 134.3-38.3 8.8-3.7 17.9-8 24.2-15.3 11.7-13.8 10.3-33.9 10.9-51.9 0.6-20.9 4.7-41.7 11.9-61.3 4.4-11.8 10-24.7 5.4-36.5-4.1-10.7-16.2-16.9-27.7-17.1-11.5-0.1-22.6 4.7-32.5 10.5-28.3 16.4-50.7 41.1-71.1 66.7-32.5 40.9-72.8 137.1-92.5 129.6-6.5-2.5-7-9.7-6.7-16.7 0.8-20.3 11.1-39.1 16.1-58.8 1.4-5.6 2.4-11.5 0.7-17-1.2-4-3.9-7.5-7.3-9.8" fill="#ffffff"/>
	</g>
</svg>