<svg version="1.2" xmlns="http://www.w3.org/2000/svg" viewBox="0 0 1000 1000" width="1000" height="1000">
	<title>7119470</title>
	<style>
		.s0 { fill: none;stroke: #0c1a3b;stroke-linecap: round;stroke-linejoin: round;stroke-width: 2 } 
	</style>
	<g id="OBJECTS">
		<g id="&lt;Group&gt;">
			<path id="&lt;Path&gt;" class="s0" d="m738.4 911.3c-2.6-50.9 7.8-119.4-3.1-138.1-10.9-18.7-43.6-2.6-81.5-6.8-37.9-4.1-50.4-30.1-40-37.9 10.4-7.8 59.7 3.7 86.7 23.4 27 19.7 32.2 23.9 34.3 40.8 2 16.8 11.4 55.2 11.4 83.8 0 28.6 4.1 44.1-4.7 47.3-8.8 3.1 4.7-28.9 12.5-46 7.8-17.1 31.9-28 67-36.2 35-8.2 35.8-14.4 41.6-32.3 5.9-17.9 15.6-18.3 15.6-18.3 0 0-10.9-9-31.9-12.9-21.1-3.9-34.7 11.3-34.7 11.3 0 0-6.2-6.2-14.8-6.2-8.6 0-11.7 18.7-25.7 27.6-14 9-10.1 48.3-10.1 48.3 0 0 2.9-24.1 30.8-44.2 33.1-23.9 86.4-23.9 86.4-23.9"/>
			<path id="&lt;Path&gt;" class="s0" d="m746 868.9c3.3-44.4 7.2-78.7-3.7-125.1-10.9-46.3 6.8-74.7 3.6-81.3-3.2-6.7-23.5-3.2-43.3-6.7-19.9-3.5-28.1 16.4-17.2 16 10.9-0.4 55-7.4 69-10.1 14-2.7 34.6 8.5 38.1 19.1 3.5 10.5-21.8 0-31.5-8.2-9.7-8.2-23.4-28.1-42.1-54.1-18.7-26.1-26.8-28.9-44-18.6-17.1 10.4-21.4-8.3-22.9 6.1-1.6 14.4 11.2 33.5 36.6 40.1 25.3 6.6 46.3 9.7 69.3 8.2 23-1.6 42.4-12.5 52.9-33.9 10.5-21.4 18.8-20.1 23.8-12.8 4.9 7.2 12.8 29.5-12.5 42.8-25.3 13.2-62.3 7.9-68.9 7-6.6-0.9-24.1-40.1-25.3-55.3-1.2-15.2 14-15.2 36.2-17.1 22.2-2 41.7-15.6 47.1-7.4 5.5 8.1 3.1 28-12.8 27.6-16-0.4-24.9-8.6-44-9.3-19.1-0.8-21.4 7.4-18.7 18.7 2.7 11.3-7.8 15.5-19.9 5-12.1-10.5-30.7-18.3-41.3-31.9-10.5-13.6-19.4-16-19.4-16 0 0 15.5-17.1 41.8-10.4 26.2 6.8 60.2 24.4 74.7 15.6 14.6-8.8 25.5-21 10.9-29.3-14.5-8.3-21.2-10.4-39.9 0-18.7 10.4-36.4 16.9-46.5 9.3-10.1-7.5 15.7-21.5 37.6-23.9 21.8-2.3 41.7 3.2 53.1 6.5 11.3 3.4 6.9 15.9 6.9 15.9 0 0 16.9 2.8 22.9 19.4 5.9 16.7-2.9 28.3-10.7 44.4-9.9 20.5-28.6 31.2-28.6 31.2"/>
			<path id="&lt;Path&gt;" class="s0" d="m728.1 597.4c1.5 5.2 2.3-14-16.4-20.2-18.7-6.3-39-11.7-44.7-21.8-5.7-10.2 21-30.1 37.1-34.8 16.1-4.7 22.6 2.8 41.7-3.7 19.1-6.4 26.6 5.4 30 15.6 3.4 10.1-3.4 29.9-20.8 32.5-17.4 2.6-20.2-3.8-15.6-8.3 4.7-4.4 19-7.6 25-7 5.9 0.5-5.2 10.3-17.2 10.9"/>
		</g>
	</g>
</svg>