<svg version="1.2" xmlns="http://www.w3.org/2000/svg" viewBox="0 0 1000 1000" width="1000" height="1000">
	<title>7119470</title>
	<style>
		.s0 { fill: none;stroke: #0c1a3b;stroke-linecap: round;stroke-linejoin: round;stroke-width: 2 } 
	</style>
	<g id="OBJECTS">
		<g id="&lt;Group&gt;">
			<path id="&lt;Path&gt;" class="s0" d="m451.3 182.6c0 0-27.5-0.6-48.1 23.8-20.6 24.4-17.1 54.4-30 60.4-12.8 6-17.1-9.4-20.5-33.9-3.5-24.4-13.1-39.4-25.7-39.3-12.6 0-30 0-23.2 4.7 6.9 4.7 22.7-1.3 50.6-9 27.8-7.7 49.7-33 72.4-18.4 22.6 14.5 25.2 5.5 26.5 19.2 1.3 13.7-51 65.1-70.7 76.7-19.7 11.5-43.2 11.5-53.1 3.4-9.8-8.1-14.5-14.6-25.2-18-10.7-3.4-7.3-23.1-7.3-23.1 0 0 10.3-18.4 0-24-10.3-5.6-45.8 2.6-63.8 12-18 9.4-18 26.6-18 26.6 0 0 8.1-18.9 34.7-20.2 26.5-1.3 42.8 14.2 42.8 14.2 0 0-5.1 11.5-46.2 12-41.2 0.4-43.7-3-61.3-16.8-17.5-13.7-10.7-11.1-18.8-27.4-8.2-16.2 9-47.1 31.7-36.8 22.7 10.3 79.6 7.3 98.9 31.7 0 0-28.1 3.4-39.8-3.4-11.8-6.9-67.1-19.1-78-36.2-10.9-17.1-15-17.8-1-40.1 13.9-22.2 37.6-34.6 51.8-31.9 14.1 2.8 16.9 16.3 29.9 12.3 13.1-4.1 14 1 19.3 20.5 5.4 19.5 3.4 39.4 2.6 47.1-0.9 7.7 7.5 21.2 7.5 21.2 0 0-10.3-7.7-14.6-31.3-4.3-23.5-3.2-56.1 3-68.7 6.2-12.6 27.2-5.8 39.6-5.6 12.5 0.3 18-9.4 27-5.3 9 4.1 7.5 15.4 20.1 20.1 12.7 4.7 18.9 7.9 20.4 20.4 1.5 12.4-1.7 11.7-5.4 26.9-3.6 15.2-6.4 28.5-17.3 35.6-10.9 7.1-31.1 8.8-32.6 8.3-1.5-0.4 13.5-3.8 17.6-16.2 4.1-12.5 10.5-5.6 7.9 0.2-2.5 5.8-14.3 1.7-14.3 1.7 0 0-11.2 12.4-21.9 12.8-10.7 0.5 11.8-27.2 20.4-31.6 8.5-4.5 9.2 5.1 0.2 11.7-9 6.7-18.4 1.7-18.4 1.7 0 0-7.9 7.5-9.7 16.7-1.7 9.2-7.7-0.8 0.7-19.2 8.3-18.4 13.5-28.9 17.8-25.5 4.2 3.4 0.6 13.3-7.3 18.8-7.9 5.6-23.2-1.5-23.2-1.5 0 0-1.7-20.3 5.4-20.5 7.1-0.2-2.6 16.9-4.3 27.4-1.7 10.5 2.6 25.9 2.6 25.9 0 0-17.1-9.1-21.2-24"/>
			<path id="&lt;Path&gt;" class="s0" d="m215.9 252.6c-12 8.3-9.1 30.3-9.1 30.3 0 0 10.8-16 28-17.4 17.1-1.4 32.4-6.3 37.6-12.9 5.2-6.5-7.1-3.1-16.2 15.2-9.2 18.3 2.3 39.7 2.3 39.7 0 0 4.1-19.1 15.2-29 11-9.9 20.6-25.4 19-32.1-1.6-6.8-7.1 5.9-7.1 12.2-0.1 6.4 4.5 32 26.5 37.7 22 5.7 27.1 17.4 27.1 17.4 0 0 13.7-17.1-6.4-41.3"/>
		</g>
	</g>
</svg>